<svg xmlns="http://www.w3.org/2000/svg" xml:space="preserve" width="1225.1005" height="456.12482" viewBox="0 0 1225.1005 456.12481"><defs><clipPath id="a" clipPathUnits="userSpaceOnUse"><path d="M0 595.276h2245.04V0H0Z"/></clipPath></defs><g clip-path="url(#a)" style="stroke-width:.0668901" transform="matrix(19.9332 0 0 -19.9332 -30103.513 1154.539)"><g style="stroke-width:.0668901"><path d="M0 0c-.681 0-1.07.762-1.07 1.703S-.641 3.406 0 3.406c.67 0 1.069-.761 1.069-1.703C1.069.762.63 0 0 0m-.011 3.747c-1.13 0-1.939-.914-1.939-2.042s.7-2.042 1.939-2.042c1.191 0 1.95.914 1.95 2.042S1.31 3.747-.011 3.747" style="fill:#2d341c;fill-opacity:1;fill-rule:nonzero;stroke:none;stroke-width:.0668901" transform="translate(1530.9 35.377)"/></g><g style="stroke-width:.0668901"><path d="M0 0s.279.021.529 0c0 0-.04.735-.04 1.046C.5 1.355.5 2.768.5 2.768S2.569.419 2.88 0c0 0 .319.023.46 0v1.27c-.011.482.01.989.03 1.471l.069 1.17s-.24-.057-.519 0l.01-.068c.03-.79.03-1.582.019-2.373v-.269L.6 3.911s-.33-.061-.521 0C.079 3.911.18 2.174 0 0" style="fill:#2d341c;fill-opacity:1;fill-rule:nonzero;stroke:none;stroke-width:.0668901" transform="translate(1533.36 35.116)"/></g><g style="stroke-width:.0668901"><path d="M0 0s.529.033.939 0c0 0-.04.45-.04.752-.009.302 0 1.261 0 1.261l1.46 2.53s-.269-.042-.559 0c0 0-.611-1.153-1.12-2.024 0 0-.951 1.504-1.17 2.024 0 0-.55-.081-1.031 0L.06 1.913S.069.835.06.703C.05.57 0 0 0 0" style="fill:#2d341c;fill-opacity:1;fill-rule:nonzero;stroke:none;stroke-width:.0668901" transform="translate(1527.03 35.115)"/></g><g style="stroke-width:.0668901"><path d="M0 0s-.03-.34-.03-.861c0-.522 0-.704.02-.725 0 0-.929-.302-1.639-.225 0 0-2.031.056-1.811 2.246 0 0 .061 1.533 1.78 1.788.67.098 1.241-.106 1.66-.359 0 0-.07-.398-.1-.578h-.069s-.471.771-1.371.574C-2.439 1.671-2.78.471-2.6-.33c.19-.801.69-1.404 1.82-1.071 0 0 .01.466.02.811 0 .091-.01.114-.03.145l-.14.079c-.16.044-.389.006-.389.006v.376S-.77-.025 0 0" style="fill:#2d341c;fill-opacity:1;fill-rule:nonzero;stroke:none;stroke-width:.0668901" transform="translate(1540.8 36.861)"/></g><g style="stroke-width:.0668901"><path d="M0 0c-.271-.062-.721-.035-.721-.035L-.7 1.936s.729.013.87-.045C.3 1.83.68 1.644.659.949.63.254.279.063 0 0m1.5 1.232C1.329 2.18.359 2.28-.41 2.229c-.771-.05-1.181 0-1.181 0 .021-.25.051-1.217.051-1.217l-.011-2.667-.04-.658.2.011h.46c.191 0 .25-.011.25-.011s-.019.477-.019.621c-.01.143-.021 1.338-.021 1.338C.26-.368.68-.231.68-.231c1.019.339.82 1.463.82 1.463" style="fill:#2d341c;fill-opacity:1;fill-rule:nonzero;stroke:none;stroke-width:.0668901" transform="translate(1544.36 37.429)"/></g><g style="stroke-width:.0668901"><path d="M0 0s.67-.064.92 0c0 0 .77-1.677.891-1.814 0 0 .719 1.402.849 1.814 0 0 .17-.065.521 0L2.7-.874c-.099-.175-.21-.384-.3-.564l-.389-.752s-.05-.916.04-1.731c0 0 .01.011-.301.011h-.409l-.181-.011s.051.58.051.742c.01.163 0 .864 0 .864S.091-.121 0 0" style="fill:#2d341c;fill-opacity:1;fill-rule:nonzero;stroke:none;stroke-width:.0668901" transform="translate(1546.02 39.037)"/></g><g style="stroke-width:.0668901"><path d="M0 0s.289.021.539 0C.539 0 .5.735.5 1.046c.01.309.01 1.722.01 1.722S2.569.419 2.879 0c0 0 .32.023.471 0l-.01 1.27c0 .482.019.989.039 1.471l.07 1.17s-.25-.057-.519 0v-.068c.04-.79.04-1.582.029-2.373l-.01-.269L.6 3.911s-.33-.061-.51 0C.09 3.911.189 2.174 0 0" style="fill:#2d341c;fill-opacity:1;fill-rule:nonzero;stroke:none;stroke-width:.0668901" transform="translate(1553.48 35.116)"/></g><g style="stroke-width:.0668901"><path d="M0 0s-.029-.34-.029-.861c0-.522 0-.704.009-.725 0 0-.919-.302-1.64-.225 0 0-2.029.056-1.81 2.246 0 0 .071 1.533 1.79 1.788a2.45 2.45 0 0 0 1.651-.359s-.061-.398-.091-.578h-.069s-.471.771-1.371.574C-2.439 1.671-2.79.471-2.6-.33s.68-1.404 1.821-1.071c0 0 .009.466.009.811 0 .091 0 .114-.03.145l-.139.079c-.151.044-.391.006-.391.006v.376S-.77-.025 0 0" style="fill:#2d341c;fill-opacity:1;fill-rule:nonzero;stroke:none;stroke-width:.0668901" transform="translate(1560.93 36.861)"/></g><g style="stroke-width:.0668901"><path d="M0 0c-.681 0-1.07.762-1.07 1.703S-.641 3.406 0 3.406c.67 0 1.06-.761 1.06-1.703C1.06.762.63 0 0 0m-.011 3.747c-1.139 0-1.939-.914-1.939-2.042s.7-2.042 1.939-2.042c1.181 0 1.95.914 1.95 2.042S1.31 3.747-.011 3.747" style="fill:#2d341c;fill-opacity:1;fill-rule:nonzero;stroke:none;stroke-width:.0668901" transform="translate(1551.03 35.377)"/></g><g style="stroke-width:.0668901"><path d="m0 0-7.48 6.213a.85.85 0 0 1-1.09-.001.77.77 0 0 1-.26-.548V-4.639h1.769v6.228L.41-4.662a.86.86 0 0 1 1.1.002.8.8 0 0 1 .25.547V6.269H0z" style="fill:#2d341c;fill-opacity:1;fill-rule:nonzero;stroke:none;stroke-width:.0668901" transform="translate(1556.24 48.414)"/></g><g style="stroke-width:.0668901"><path d="M0 0a.828.828 0 0 1-1.48-.038l-4.97-10.436h1.849l3.121 6.557 2.83-5.122s.52-1.154 2.19-1.523c.59-.13 1.33-.053 2.18.083z" style="fill:#2d341c;fill-opacity:1;fill-rule:nonzero;stroke:none;stroke-width:.0668901" transform="translate(1565.96 54.237)"/></g><g style="stroke-width:.0668901"><path d="M0 0c-.33.815-1.351.828-1.7.02l-2.321-5.417L-6.2 0c-.321.815-1.35.828-1.7.02l-4.42-10.321h1.83l2.55 5.945 1.81-4.502c.2-.513.72-1.113 1.73-1.42 1.25-.379 2.36-.035 2.36-.035l-1.12 2.79 1.389 3.241L.07-8.858c.209-.513.72-1.113 1.74-1.42 1.25-.379 2.35-.035 2.35-.035z" style="fill:#2d341c;fill-opacity:1;fill-rule:nonzero;stroke:none;stroke-width:.0668901" transform="translate(1527.08 54.065)"/></g><g style="stroke-width:.0668901"><path d="M0 0c-2.21 0-3.64 2.148-3.64 4.647S-2.21 9.283 0 9.283c2.141 0 3.641-2.137 3.641-4.636S2.141 0 0 0m0 10.514c-3.649 0-6.81-2.132-6.84-5.867C-6.869 1.018-3.649-1.22 0-1.22s6.801 2.238 6.841 5.867C6.881 8.382 3.65 10.514 0 10.514" style="fill:#2d341c;fill-opacity:1;fill-rule:nonzero;stroke:none;stroke-width:.0668901" transform="translate(1538.44 44.573)"/></g><g style="stroke-width:.0668901"><path d="M0 0a.7.7 0 0 1-.5-.232l-.55-.541.12-.114a.77.77 0 0 1 .51-.218c.18 0 .36.084.53.25l.54.539-.14.112A.8.8 0 0 1 0 0" style="fill:#c6196e;fill-opacity:1;fill-rule:nonzero;stroke:none;stroke-width:.0668901" transform="translate(1512.72 54.802)"/></g><g style="stroke-width:.0668901"><path d="m0 0 .25-.208A.58.58 0 0 0 .5-.71v-2.064c0-1.654 1.17-2.328 2.15-2.6l.201-.058v.906l-.111.036q-.134.045-.27.1c-.76.327-1.1.825-1.1 1.616V.062l-.15.012C1.03.093.87.097.771.097L.69.096C.601.096.45.085.36.078L0 .05z" style="fill:#c6196e;fill-opacity:1;fill-rule:nonzero;stroke:none;stroke-width:.0668901" transform="translate(1510.22 56.903)"/></g><g style="stroke-width:.0668901"><path d="m0 0-.21-.165c-.2-.164-.27-.286-.27-.487v-2.192c0-1.984-1.68-2.559-2.74-2.723v-.869l-.16.002a5 5 0 0 0-.57.043l-.14.019v2.766c0 .805-.29 1.309-.931 1.633a2.6 2.6 0 0 1-.439.172l-.11.034v.899l.2-.05c.98-.248 2.15-.916 2.15-2.688v-1.077c.28.052.54.127.76.225.76.325 1.1.823 1.1 1.614v2.072a3 3 0 0 1-.93-.281c-.34-.174-.58-.401-.731-.698l-.129-.241-.15.222a2 2 0 0 1-.36.403l-.1.091.07.116C-2.91.052-1.25.146-.76.146h.07c.12 0 .39-.026.4-.027l.26-.025S.11.072 0 0" style="fill:#c6196e;fill-opacity:1;fill-rule:nonzero;stroke:none;stroke-width:.0668901" transform="translate(1517.54 57.774)"/></g></g></svg>